<svg width="569" height="120" viewBox="0 0 569 120" fill="none" xmlns="http://www.w3.org/2000/svg">
<path d="M303.793 32.9916C308.035 32.9916 311.473 29.5532 311.473 25.3117C311.473 21.0702 308.035 17.6318 303.793 17.6318C299.552 17.6318 296.113 21.0702 296.113 25.3117C296.113 29.5532 299.552 32.9916 303.793 32.9916Z" fill="#0D0536"/>
<path d="M182.535 25.3389H170V87.8406H182.535V25.3389Z" fill="#0D0536"/>
<path d="M221.083 37.5238C218.149 37.4961 215.246 38.1209 212.583 39.353C210.078 40.5076 207.884 42.241 206.181 44.4101V38.2366H193.646V87.8533H206.181V60.4424C206.181 56.5061 207.181 53.4798 209.18 51.3637C210.244 50.2858 211.524 49.4447 212.935 48.8954C214.347 48.3461 215.858 48.101 217.371 48.1761C218.866 48.1011 220.359 48.3467 221.751 48.8965C223.143 49.4463 224.401 50.2875 225.441 51.3637C227.405 53.4798 228.387 56.5061 228.387 60.4424V87.8533H240.828V58.7477C240.828 52.0676 239.003 46.858 235.354 43.1189C233.49 41.252 231.26 39.791 228.804 38.8281C226.348 37.8651 223.719 37.4211 221.083 37.5238V37.5238Z" fill="#0D0536"/>
<path d="M289.247 73.7024C289.256 76.4514 288.399 79.1335 286.799 81.3688C285.135 83.6894 282.858 85.501 280.222 86.6008L279.994 86.7084C276.713 88.0471 273.193 88.6972 269.651 88.6183C266.486 88.6647 263.339 88.1454 260.357 87.085C259.803 86.8933 259.26 86.6733 258.729 86.426C255.714 85.1269 253.081 83.0809 251.076 80.4811C250.581 79.8225 250.131 79.1304 249.731 78.4098L260.841 73.2989C261.28 74.7635 262.187 76.0438 263.423 76.9438C265.205 78.2502 267.376 78.914 269.583 78.8268C271.554 78.9265 273.507 78.4042 275.165 77.3339C275.355 77.2045 275.535 77.0606 275.703 76.9035C276.159 76.5048 276.524 76.0125 276.772 75.46C277.02 74.9076 277.147 74.3081 277.142 73.7024C277.143 72.92 276.909 72.1554 276.47 71.5078C276.032 70.8602 275.408 70.3596 274.681 70.0709C273.807 69.6464 272.909 69.2737 271.991 68.9546L270.901 68.5914C270.094 68.3359 269.207 68.0803 268.211 67.7979L266.866 67.4213C263.772 66.7214 260.733 65.7953 257.774 64.6506C255.42 63.7 253.33 62.196 251.682 60.2659C249.892 58.0105 248.988 55.1788 249.139 52.3036C249.115 49.6063 249.944 46.9703 251.507 44.7716C253.23 42.3796 255.587 40.5163 258.312 39.3917C259.114 39.0384 259.936 38.733 260.774 38.4771C263.366 37.7369 266.053 37.3789 268.749 37.4145C271.647 37.3799 274.53 37.8347 277.277 38.7595C279.329 39.4452 281.236 40.508 282.899 41.8933C284.81 43.4651 286.318 45.4711 287.297 47.7441L276.537 52.7609C276.206 51.324 275.394 50.0431 274.237 49.1294C272.542 47.8993 270.478 47.2869 268.386 47.3944C267.271 47.3767 266.158 47.5079 265.078 47.7844C264.387 47.9746 263.729 48.2694 263.127 48.6587C262.545 49.0291 262.07 49.5456 261.749 50.1568C261.428 50.7679 261.273 51.4524 261.298 52.1422C261.294 52.9543 261.53 53.7496 261.978 54.4272C262.426 55.1048 263.064 55.6343 263.813 55.9485C265.631 56.8154 267.527 57.5089 269.476 58.0198L271.601 58.5981C274.621 59.3121 277.587 60.238 280.478 61.3688C282.819 62.3337 284.888 63.8577 286.503 65.8073C288.326 68.0297 289.299 70.8284 289.247 73.7024V73.7024Z" fill="#0D0536"/>
<path d="M310.062 38.2363H297.526V87.853H310.062V38.2363Z" fill="#0D0536"/>
<path d="M417.694 39.9838C414.623 38.3087 411.17 37.4605 407.674 37.5225C404.59 37.4764 401.534 38.1005 398.716 39.3517C396.171 40.4653 393.95 42.2051 392.26 44.4089V17.6436H379.725V87.8521H392.26V60.4412C392.26 56.5003 393.269 53.4741 395.259 51.3625C396.325 50.2828 397.607 49.4407 399.021 48.8914C400.435 48.342 401.949 48.0978 403.464 48.1748C404.959 48.0972 406.453 48.3416 407.845 48.8916C409.237 49.4415 410.495 50.2842 411.534 51.3625C413.497 53.4741 414.493 56.5003 414.493 60.4412V87.8521H427.028V58.7465C427.138 54.7674 426.294 50.8198 424.567 47.2333C423.055 44.1817 420.661 41.6556 417.694 39.9838V39.9838Z" fill="#0D0536"/>
<path d="M451.005 23.418L438.375 28.5289V38.2398H432.471V48.5424H438.375V72.4563C438.375 82.7141 443.657 87.8475 454.219 87.8565H462.101V77.3387H456.29C454.855 77.4644 453.422 77.068 452.256 76.2223C451.813 75.7342 451.476 75.1592 451.268 74.534C451.06 73.9088 450.984 73.247 451.045 72.5908V48.5424H462.141V38.2398H451.045L451.005 23.418Z" fill="#0D0536"/>
<path d="M484.445 36.1792C484.445 33.3681 485.037 31.4313 486.234 30.3553C487.431 29.2793 489.543 28.7817 492.596 28.8355V18.2639C485.602 18.0845 480.374 19.4295 476.913 22.2988C473.452 25.1682 471.721 29.6515 471.721 35.7488V38.2504H466.086V48.5531H471.721V87.8537H484.445V48.5396H493.134V38.237H484.445V36.1792Z" fill="#0D0536"/>
<path d="M533.353 65.5531C533.353 69.4939 532.358 72.5201 530.394 74.6452C529.339 75.7224 528.066 76.5626 526.661 77.1099C525.255 77.6572 523.75 77.8991 522.244 77.8194C520.75 77.897 519.257 77.6539 517.865 77.1064C516.473 76.5589 515.214 75.7197 514.174 74.6452C512.174 72.5201 511.174 69.4894 511.174 65.5531V38.2363H498.639V67.3419C498.53 71.3014 499.408 75.2257 501.194 78.7609C502.763 81.8211 505.207 84.3449 508.215 86.0104C511.383 87.6962 514.93 88.5435 518.518 88.4717C521.439 88.5002 524.33 87.8752 526.978 86.6425C529.468 85.5006 531.639 83.7639 533.299 81.5854V87.853H545.915V38.2363H533.299L533.353 65.5531Z" fill="#0D0536"/>
<path d="M569.001 21.585H556.466V87.8527H569.001V21.585Z" fill="#0D0536"/>
<path d="M369.017 63.0258C369.014 57.5248 367.178 52.1818 363.799 47.8408L368.17 42.6492L359.347 35.2383L354.868 40.6182C351.49 38.9897 347.789 38.1438 344.039 38.1436C340.29 38.1433 336.588 38.9887 333.211 40.6167C329.833 42.2448 326.866 44.6136 324.53 47.547C322.194 50.4803 320.55 53.9027 319.72 57.5593C318.89 61.2159 318.895 65.0126 319.736 68.6669C320.576 72.3212 322.229 75.739 324.573 78.6659C326.917 81.5929 329.89 83.9536 333.272 85.5723C336.655 87.1911 340.358 88.0263 344.108 88.0157C351.384 88.0157 357.558 92.7097 357.558 98.2511C357.558 103.792 351.398 108.486 344.108 108.486C336.818 108.486 330.658 103.806 330.658 98.2511H319.145C319.145 110.248 330.335 120 344.095 120C357.854 120 369.044 110.248 369.044 98.2511C368.982 95.0406 368.173 91.8886 366.682 89.0451C365.19 86.2015 363.056 83.7446 360.45 81.8691C363.145 79.526 365.305 76.6307 366.783 73.3795C368.262 70.1283 369.024 66.5973 369.017 63.0258ZM330.631 63.0258C330.631 60.3656 331.42 57.7652 332.898 55.5534C334.376 53.3416 336.476 51.6177 338.934 50.5997C341.392 49.5817 344.096 49.3153 346.705 49.8343C349.314 50.3533 351.711 51.6343 353.592 53.5153C355.473 55.3963 356.754 57.7928 357.273 60.4018C357.792 63.0109 357.525 65.7152 356.507 68.1728C355.489 70.6305 353.765 72.7311 351.553 74.209C349.342 75.6869 346.741 76.4757 344.081 76.4757C340.514 76.4757 337.093 75.0586 334.571 72.5363C332.048 70.014 330.631 66.5929 330.631 63.0258Z" fill="#0D0536"/>
<path d="M59.9814 8.0744C59.9814 3.61503 63.5965 0 68.0558 0V0C72.5152 0 76.1302 3.61503 76.1302 8.0744V8.0744C76.1302 12.5338 72.5152 16.1488 68.0558 16.1488V16.1488C63.5965 16.1488 59.9814 12.5338 59.9814 8.0744V8.0744Z" fill="#00D2DA"/>
<path d="M59.9805 33.4509C59.9805 28.9915 63.5955 25.3765 68.0549 25.3765V25.3765C72.5142 25.3765 76.1293 28.9915 76.1293 33.4509V111.888C76.1293 116.347 72.5142 119.962 68.0549 119.962V119.962C63.5955 119.962 59.9805 116.347 59.9805 111.888V33.4509Z" fill="#746FFF"/>
<path d="M89.9717 61.1345C89.9717 56.6751 93.5867 53.0601 98.0461 53.0601V53.0601C102.505 53.0601 106.12 56.6751 106.12 61.1345V86.5111C106.12 90.9705 102.505 94.5855 98.0461 94.5855V94.5855C93.5867 94.5855 89.9717 90.9705 89.9717 86.5111V61.1345Z" fill="#746FFF"/>
<path d="M29.9912 33.4509C29.9912 28.9915 33.6062 25.3765 38.0656 25.3765V25.3765C42.525 25.3765 46.14 28.9915 46.14 33.4509V58.8276C46.14 63.2869 42.525 66.9019 38.0656 66.9019V66.9019C33.6062 66.9019 29.9912 63.2869 29.9912 58.8275V33.4509Z" fill="#746FFF"/>
<path d="M0 58.8273C0 54.368 3.61503 50.7529 8.0744 50.7529V50.7529C12.5338 50.7529 16.1488 54.368 16.1488 58.8273V58.8273C16.1488 63.2867 12.5338 66.9017 8.0744 66.9017V66.9017C3.61503 66.9017 0 63.2867 0 58.8273V58.8273Z" fill="#746FFF"/>
<path d="M119.963 61.1345C119.963 56.6751 123.578 53.0601 128.037 53.0601V53.0601C132.497 53.0601 136.112 56.6751 136.112 61.1345V61.1345C136.112 65.5938 132.497 69.2089 128.037 69.2089V69.2089C123.578 69.2089 119.963 65.5938 119.963 61.1345V61.1345Z" fill="#746FFF"/>
</svg>
